<svg version="1.1" id="Layer_1" xmlns="http://www.w3.org/2000/svg" xmlns:xlink="http://www.w3.org/1999/xlink" x="0px" y="0px"
	 width="100%" viewBox="0 0 138 138" enable-background="new 0 0 138 138" xml:space="preserve">
<path fill="#54BA62" opacity="1.000000" stroke="none" 
	d="
M74.000000,139.000000 
	C71.629440,139.000000 69.258888,139.000000 66.786148,138.761826 
	C65.719284,137.665741 64.876907,136.581039 63.771160,135.984711 
	C51.694225,129.471634 41.582264,120.630760 33.336029,109.755882 
	C24.312752,97.856255 18.857458,84.591789 18.974546,69.343307 
	C19.090813,54.201828 18.864567,39.057037 19.056400,23.917095 
	C19.154202,16.198271 17.328806,8.158195 22.000000,1.000000 
	C53.687561,1.000000 85.375122,1.000000 117.186081,1.257621 
	C120.289680,4.314272 121.110336,7.721789 121.076645,11.797462 
	C120.908836,32.093468 121.001022,52.391617 120.997536,72.689011 
	C120.997307,74.019493 121.141273,75.380913 120.917213,76.675873 
	C116.600800,101.623276 101.905640,119.279251 81.439400,132.923325 
	C78.787735,134.691086 76.471573,136.962097 74.000000,139.000000 
M52.000423,115.081802 
	C51.509552,119.973457 55.833538,120.586899 58.710892,123.686905 
	C58.710892,89.186867 58.710892,55.823360 58.710892,22.354702 
	C47.714520,22.354702 37.010002,22.354702 26.271055,22.354702 
	C26.271055,26.584930 26.271055,30.457504 26.271055,33.139084 
	C31.569077,33.380035 36.831051,32.650909 41.453636,34.043774 
	C49.523243,36.475285 51.858768,43.638908 51.930973,51.251328 
	C52.129902,72.222565 51.999947,93.196930 52.000423,115.081802 
M112.078926,33.998623 
	C112.698814,33.854145 113.855499,33.724224 113.859871,33.563046 
	C113.961655,29.810432 113.938599,26.054432 113.938599,22.258968 
	C102.689415,22.258968 92.103806,22.258968 81.462357,22.258968 
	C81.462357,55.947849 81.462357,89.375679 81.462357,123.241066 
	C86.111351,120.400467 88.296356,117.450592 88.175613,111.961708 
	C87.732597,91.823639 87.967300,71.669884 88.011444,51.522167 
	C88.042244,37.464489 97.516159,30.266512 112.078926,33.998623 
M27.362001,45.160973 
	C26.908001,51.381855 26.277313,57.595829 26.033661,63.824940 
	C25.346769,81.385811 31.650362,96.340797 43.135216,109.293015 
	C43.503075,109.144310 43.785999,109.083832 43.786247,109.022232 
	C43.867313,88.710587 44.035877,68.398170 43.903717,48.087715 
	C43.876205,43.859692 40.767303,40.956833 36.842102,40.205830 
	C33.246746,39.517941 29.536005,40.356030 27.362001,45.160973 
M108.211777,41.056351 
	C101.587082,38.571102 96.039520,42.443207 96.019112,49.729252 
	C95.965485,68.869453 95.999641,88.009903 96.017006,107.150238 
	C96.017662,107.870491 96.207481,108.590576 96.362015,109.685211 
	C103.873955,101.810204 109.703430,93.151863 111.530472,83.236900 
	C113.604897,71.979454 113.576286,60.281452 113.726799,48.765366 
	C113.758514,46.338776 110.599915,43.870483 108.211777,41.056351 
M66.000000,66.500000 
	C66.000084,85.821510 66.037323,105.143166 65.960434,124.464371 
	C65.948814,127.382385 66.147827,129.850494 69.804482,129.953720 
	C73.748161,130.065079 74.050812,127.525429 74.043800,124.356773 
	C73.971977,91.876778 73.999786,59.396553 73.999786,26.916395 
	C73.999786,25.341137 73.999786,23.765879 73.999786,22.312725 
	C70.915932,22.312725 68.656067,22.312725 66.000000,22.312725 
	C66.000000,36.913174 66.000000,51.206585 66.000000,66.500000 
M34.613430,8.000000 
	C25.407566,8.001504 25.109282,8.257369 26.781647,14.757187 
	C55.692699,14.757187 84.611351,14.757187 113.494652,14.757187 
	C114.423584,8.155677 114.310272,8.005009 108.015373,8.003082 
	C83.871407,7.995697 59.727436,8.000036 34.613430,8.000000 
z"/>
<path fill="#000000" opacity="1.000000" stroke="none" 
	d="
M74.468658,139.000000 
	C76.471573,136.962097 78.787735,134.691086 81.439400,132.923325 
	C101.905640,119.279251 116.600800,101.623276 120.917213,76.675873 
	C121.141273,75.380913 120.997307,74.019493 120.997536,72.689011 
	C121.001022,52.391617 120.908836,32.093468 121.076645,11.797462 
	C121.110336,7.721789 120.289680,4.314272 117.654739,1.257621 
	C124.986305,1.000000 131.972610,1.000000 138.979462,1.000000 
	C138.979462,46.896297 138.979462,92.792610 138.979462,139.000000 
	C117.646782,139.000000 96.292046,139.000000 74.468658,139.000000 
z"/>
<path fill="#000000" opacity="1.000000" stroke="none" 
	d="
M21.531088,1.000000 
	C17.328806,8.158195 19.154202,16.198271 19.056400,23.917095 
	C18.864567,39.057037 19.090813,54.201828 18.974546,69.343307 
	C18.857458,84.591789 24.312752,97.856255 33.336029,109.755882 
	C41.582264,120.630760 51.694225,129.471634 63.771160,135.984711 
	C64.876907,136.581039 65.719284,137.665741 66.341980,138.761826 
	C44.375778,139.000000 22.751553,139.000000 1.063664,139.000000 
	C1.063664,93.000023 1.063664,47.000019 1.063664,1.000000 
	C7.754967,1.000000 14.408571,1.000000 21.531088,1.000000 
z"/>
<path fill="#000000" opacity="1.000000" stroke="none" 
	d="
M52.000256,114.625931 
	C51.999947,93.196930 52.129902,72.222565 51.930973,51.251328 
	C51.858768,43.638908 49.523243,36.475285 41.453636,34.043774 
	C36.831051,32.650909 31.569077,33.380035 26.271055,33.139084 
	C26.271055,30.457504 26.271055,26.584930 26.271055,22.354702 
	C37.010002,22.354702 47.714520,22.354702 58.710892,22.354702 
	C58.710892,55.823360 58.710892,89.186867 58.710892,123.686905 
	C55.833538,120.586899 51.509552,119.973457 52.000256,114.625931 
z"/>
<path fill="#000000" opacity="1.000000" stroke="none" 
	d="
M111.681366,33.871025 
	C97.516159,30.266512 88.042244,37.464489 88.011444,51.522167 
	C87.967300,71.669884 87.732597,91.823639 88.175613,111.961708 
	C88.296356,117.450592 86.111351,120.400467 81.462357,123.241066 
	C81.462357,89.375679 81.462357,55.947849 81.462357,22.258968 
	C92.103806,22.258968 102.689415,22.258968 113.938599,22.258968 
	C113.938599,26.054432 113.961655,29.810432 113.859871,33.563046 
	C113.855499,33.724224 112.698814,33.854145 111.681366,33.871025 
z"/>
<path fill="#000000" opacity="1.000000" stroke="none" 
	d="
M27.616859,44.846794 
	C29.536005,40.356030 33.246746,39.517941 36.842102,40.205830 
	C40.767303,40.956833 43.876205,43.859692 43.903717,48.087715 
	C44.035877,68.398170 43.867313,88.710587 43.786247,109.022232 
	C43.785999,109.083832 43.503075,109.144310 43.135216,109.293015 
	C31.650362,96.340797 25.346769,81.385811 26.033661,63.824940 
	C26.277313,57.595829 26.908001,51.381855 27.616859,44.846794 
z"/>
<path fill="#000000" opacity="1.000000" stroke="none" 
	d="
M108.561554,41.238876 
	C110.599915,43.870483 113.758514,46.338776 113.726799,48.765366 
	C113.576286,60.281452 113.604897,71.979454 111.530472,83.236900 
	C109.703430,93.151863 103.873955,101.810204 96.362015,109.685211 
	C96.207481,108.590576 96.017662,107.870491 96.017006,107.150238 
	C95.999641,88.009903 95.965485,68.869453 96.019112,49.729252 
	C96.039520,42.443207 101.587082,38.571102 108.561554,41.238876 
z"/>
<path fill="#000000" opacity="1.000000" stroke="none" 
	d="
M66.000000,66.000000 
	C66.000000,51.206585 66.000000,36.913174 66.000000,22.312725 
	C68.656067,22.312725 70.915932,22.312725 73.999786,22.312725 
	C73.999786,23.765879 73.999786,25.341137 73.999786,26.916395 
	C73.999786,59.396553 73.971977,91.876778 74.043800,124.356773 
	C74.050812,127.525429 73.748161,130.065079 69.804482,129.953720 
	C66.147827,129.850494 65.948814,127.382385 65.960434,124.464371 
	C66.037323,105.143166 66.000084,85.821510 66.000000,66.000000 
z"/>
<path fill="#000000" opacity="1.000000" stroke="none" 
	d="
M35.098450,8.000000 
	C59.727436,8.000036 83.871407,7.995697 108.015373,8.003082 
	C114.310272,8.005009 114.423584,8.155677 113.494652,14.757187 
	C84.611351,14.757187 55.692699,14.757187 26.781647,14.757187 
	C25.109282,8.257369 25.407566,8.001504 35.098450,8.000000 
z"/>
</svg>